<?xml version="1.0" encoding="UTF-8" standalone="no"?>
<svg width="1920" height="1080" viewBox="0 0 1920 1080" fill="none" xmlns="http://www.w3.org/2000/svg">
  <!-- 背景 -->
  <rect width="1920" height="1080" fill="#0f0f1e"/>
  
  <!-- 星空效果 -->
  <g id="stars">
    <!-- 小星星 -->
    <circle cx="150" cy="120" r="1.5" fill="#ffffff" opacity="0.7"/>
    <circle cx="450" cy="320" r="1.5" fill="#ffffff" opacity="0.7"/>
    <circle cx="750" cy="220" r="1.5" fill="#ffffff" opacity="0.7"/>
    <circle cx="1050" cy="420" r="1.5" fill="#ffffff" opacity="0.7"/>
    <circle cx="1350" cy="120" r="1.5" fill="#ffffff" opacity="0.7"/>
    <circle cx="1650" cy="320" r="1.5" fill="#ffffff" opacity="0.7"/>
    <circle cx="250" cy="520" r="1.5" fill="#ffffff" opacity="0.7"/>
    <circle cx="550" cy="620" r="1.5" fill="#ffffff" opacity="0.7"/>
    <circle cx="850" cy="520" r="1.5" fill="#ffffff" opacity="0.7"/>
    <circle cx="1150" cy="620" r="1.5" fill="#ffffff" opacity="0.7"/>
    <circle cx="1450" cy="520" r="1.5" fill="#ffffff" opacity="0.7"/>
    <circle cx="1750" cy="620" r="1.5" fill="#ffffff" opacity="0.7"/>
    <circle cx="350" cy="820" r="1.5" fill="#ffffff" opacity="0.7"/>
    <circle cx="650" cy="920" r="1.5" fill="#ffffff" opacity="0.7"/>
    <circle cx="950" cy="820" r="1.5" fill="#ffffff" opacity="0.7"/>
    <circle cx="1250" cy="920" r="1.5" fill="#ffffff" opacity="0.7"/>
    <circle cx="1550" cy="820" r="1.5" fill="#ffffff" opacity="0.7"/>
    <circle cx="1850" cy="920" r="1.5" fill="#ffffff" opacity="0.7"/>
    
    <!-- 中星星 -->
    <circle cx="200" cy="150" r="2" fill="#ffffff" opacity="0.8"/>
    <circle cx="500" cy="350" r="2" fill="#ffffff" opacity="0.8"/>
    <circle cx="800" cy="250" r="2" fill="#ffffff" opacity="0.8"/>
    <circle cx="1100" cy="450" r="2" fill="#ffffff" opacity="0.8"/>
    <circle cx="1400" cy="150" r="2" fill="#ffffff" opacity="0.8"/>
    <circle cx="1700" cy="350" r="2" fill="#ffffff" opacity="0.8"/>
    <circle cx="300" cy="550" r="2" fill="#ffffff" opacity="0.8"/>
    <circle cx="600" cy="650" r="2" fill="#ffffff" opacity="0.8"/>
    <circle cx="900" cy="550" r="2" fill="#ffffff" opacity="0.8"/>
    <circle cx="1200" cy="650" r="2" fill="#ffffff" opacity="0.8"/>
    <circle cx="1500" cy="550" r="2" fill="#ffffff" opacity="0.8"/>
    <circle cx="1800" cy="650" r="2" fill="#ffffff" opacity="0.8"/>
    <circle cx="400" cy="850" r="2" fill="#ffffff" opacity="0.8"/>
    <circle cx="700" cy="950" r="2" fill="#ffffff" opacity="0.8"/>
    <circle cx="1000" cy="850" r="2" fill="#ffffff" opacity="0.8"/>
    <circle cx="1300" cy="950" r="2" fill="#ffffff" opacity="0.8"/>
    <circle cx="1600" cy="850" r="2" fill="#ffffff" opacity="0.8"/>
    <circle cx="1900" cy="950" r="2" fill="#ffffff" opacity="0.8"/>
    
    <!-- 大星星 -->
    <circle cx="250" cy="200" r="3" fill="#ffffff" opacity="0.9"/>
    <circle cx="550" cy="400" r="3" fill="#ffffff" opacity="0.9"/>
    <circle cx="850" cy="300" r="3" fill="#ffffff" opacity="0.9"/>
    <circle cx="1150" cy="500" r="3" fill="#ffffff" opacity="0.9"/>
    <circle cx="1450" cy="200" r="3" fill="#ffffff" opacity="0.9"/>
    <circle cx="1750" cy="400" r="3" fill="#ffffff" opacity="0.9"/>
    <circle cx="350" cy="600" r="3" fill="#ffffff" opacity="0.9"/>
    <circle cx="650" cy="700" r="3" fill="#ffffff" opacity="0.9"/>
    <circle cx="950" cy="600" r="3" fill="#ffffff" opacity="0.9"/>
    <circle cx="1250" cy="700" r="3" fill="#ffffff" opacity="0.9"/>
    <circle cx="1550" cy="600" r="3" fill="#ffffff" opacity="0.9"/>
    <circle cx="1850" cy="700" r="3" fill="#ffffff" opacity="0.9"/>
    <circle cx="450" cy="900" r="3" fill="#ffffff" opacity="0.9"/>
    <circle cx="750" cy="1000" r="3" fill="#ffffff" opacity="0.9"/>
    <circle cx="1050" cy="900" r="3" fill="#ffffff" opacity="0.9"/>
    <circle cx="1350" cy="1000" r="3" fill="#ffffff" opacity="0.9"/>
    <circle cx="1650" cy="900" r="3" fill="#ffffff" opacity="0.9"/>
  </g>
  
  <!-- 量子波纹 -->
  <g opacity="0.2">
    <ellipse cx="960" cy="540" rx="800" ry="400" stroke="#4d7aff" stroke-width="2" fill="none"/>
    <ellipse cx="960" cy="540" rx="700" ry="350" stroke="#7b2cbf" stroke-width="2" fill="none"/>
    <ellipse cx="960" cy="540" rx="600" ry="300" stroke="#ff5e78" stroke-width="2" fill="none"/>
    <ellipse cx="960" cy="540" rx="500" ry="250" stroke="#ffcc00" stroke-width="2" fill="none"/>
    <ellipse cx="960" cy="540" rx="400" ry="200" stroke="#4d7aff" stroke-width="2" fill="none"/>
    <ellipse cx="960" cy="540" rx="300" ry="150" stroke="#7b2cbf" stroke-width="2" fill="none"/>
    <ellipse cx="960" cy="540" rx="200" ry="100" stroke="#ff5e78" stroke-width="2" fill="none"/>
    <ellipse cx="960" cy="540" rx="100" ry="50" stroke="#ffcc00" stroke-width="2" fill="none"/>
  </g>
</svg> 