<?xml version="1.0" encoding="UTF-8" standalone="no"?>
<svg width="200" height="200" viewBox="0 0 200 200" fill="none" xmlns="http://www.w3.org/2000/svg">
  <!-- 背景圆 -->
  <circle cx="100" cy="100" r="95" fill="#1a1a2e"/>
  <circle cx="100" cy="100" r="90" stroke="#4d7aff" stroke-width="2" fill="none"/>
  
  <!-- 量子轨道 -->
  <ellipse cx="100" cy="100" rx="70" ry="70" stroke="#4d7aff" stroke-width="2" fill="none" transform="rotate(30, 100, 100)"/>
  <ellipse cx="100" cy="100" rx="50" ry="50" stroke="#7b2cbf" stroke-width="1.5" fill="none" transform="rotate(60, 100, 100)"/>
  <ellipse cx="100" cy="100" rx="30" ry="30" stroke="#ff5e78" stroke-width="1" fill="none" transform="rotate(15, 100, 100)"/>
  
  <!-- 量子粒子 -->
  <circle cx="150" cy="100" r="6" fill="#4d7aff"/>
  <circle cx="75" cy="143" r="5" fill="#7b2cbf"/>
  <circle cx="75" cy="57" r="4" fill="#ff5e78"/>
  
  <!-- 中心星形 -->
  <path d="M100 80 L105 95 L120 95 L110 105 L115 120 L100 110 L85 120 L90 105 L80 95 L95 95 Z" fill="#ffcc00"/>
  
  <!-- 中心圆 -->
  <circle cx="100" cy="100" r="15" fill="#ffcc00"/>
  <circle cx="100" cy="100" r="12" fill="#1a1a2e"/>
  <circle cx="100" cy="100" r="8" fill="#ffcc00" opacity="0.7"/>
  
  <!-- 文字 -->
  <text x="100" y="180" font-family="Arial" font-size="12" fill="#ffffff" text-anchor="middle">量子运势</text>
</svg> 