<?xml version="1.0" encoding="UTF-8" standalone="no"?>
<svg width="512" height="512" viewBox="0 0 512 512" fill="none" xmlns="http://www.w3.org/2000/svg">
  <!-- 背景圆 -->
  <circle cx="256" cy="256" r="250" fill="#1a1a2e"/>
  
  <!-- 量子轨道 - 外环 -->
  <ellipse cx="256" cy="256" rx="200" ry="200" stroke="#4d7aff" stroke-width="4" fill="none" transform="rotate(30, 256, 256)"/>
  <ellipse cx="256" cy="256" rx="200" ry="200" stroke="#4d7aff" stroke-width="4" fill="none" transform="rotate(150, 256, 256)"/>
  
  <!-- 量子轨道 - 中环 -->
  <ellipse cx="256" cy="256" rx="150" ry="150" stroke="#7b2cbf" stroke-width="3" fill="none" transform="rotate(60, 256, 256)"/>
  <ellipse cx="256" cy="256" rx="150" ry="150" stroke="#7b2cbf" stroke-width="3" fill="none" transform="rotate(120, 256, 256)"/>
  
  <!-- 量子轨道 - 内环 -->
  <ellipse cx="256" cy="256" rx="100" ry="100" stroke="#ff5e78" stroke-width="2" fill="none" transform="rotate(15, 256, 256)"/>
  <ellipse cx="256" cy="256" rx="100" ry="100" stroke="#ff5e78" stroke-width="2" fill="none" transform="rotate(75, 256, 256)"/>
  
  <!-- 量子粒子 -->
  <circle cx="356" cy="256" r="15" fill="#4d7aff">
    <animate attributeName="cx" values="356;306;256;206;156;206;256;306;356" dur="10s" repeatCount="indefinite"/>
    <animate attributeName="cy" values="256;306;356;306;256;206;156;206;256" dur="10s" repeatCount="indefinite"/>
  </circle>
  
  <circle cx="156" cy="256" r="12" fill="#7b2cbf">
    <animate attributeName="cx" values="156;206;256;306;356;306;256;206;156" dur="8s" repeatCount="indefinite"/>
    <animate attributeName="cy" values="256;206;156;206;256;306;356;306;256" dur="8s" repeatCount="indefinite"/>
  </circle>
  
  <circle cx="256" cy="156" r="10" fill="#ff5e78">
    <animate attributeName="cx" values="256;306;356;306;256;206;156;206;256" dur="6s" repeatCount="indefinite"/>
    <animate attributeName="cy" values="156;206;256;306;356;306;256;206;156" dur="6s" repeatCount="indefinite"/>
  </circle>
  
  <!-- 中心星形 -->
  <path d="M256 180 L271 240 L335 240 L283 277 L300 340 L256 300 L212 340 L229 277 L177 240 L241 240 Z" fill="#ffcc00"/>
  
  <!-- 中心圆 -->
  <circle cx="256" cy="256" r="30" fill="#ffcc00"/>
  <circle cx="256" cy="256" r="25" fill="#1a1a2e"/>
  <circle cx="256" cy="256" r="20" fill="#ffcc00" opacity="0.7"/>
  
  <!-- 光芒效果 -->
  <g opacity="0.5">
    <line x1="256" y1="50" x2="256" y2="120" stroke="#ffcc00" stroke-width="3"/>
    <line x1="256" y1="392" x2="256" y2="462" stroke="#ffcc00" stroke-width="3"/>
    <line x1="50" y1="256" x2="120" y2="256" stroke="#ffcc00" stroke-width="3"/>
    <line x1="392" y1="256" x2="462" y2="256" stroke="#ffcc00" stroke-width="3"/>
    
    <line x1="120" y1="120" x2="170" y2="170" stroke="#ffcc00" stroke-width="3"/>
    <line x1="342" y1="342" x2="392" y2="392" stroke="#ffcc00" stroke-width="3"/>
    <line x1="120" y1="392" x2="170" y2="342" stroke="#ffcc00" stroke-width="3"/>
    <line x1="342" y1="170" x2="392" y2="120" stroke="#ffcc00" stroke-width="3"/>
  </g>
</svg> 